<svg xmlns="http://www.w3.org/2000/svg" xmlns:xlink="http://www.w3.org/1999/xlink" viewBox="0 0 362.69 135.89"><defs><style>.cls-1{fill:none;}.cls-2{fill:#dae0e6;}.cls-3,.cls-4{fill:#446389;}.cls-4{opacity:0.3;}.cls-4,.cls-7{isolation:isolate;}.cls-5{fill:#f3c999;}.cls-6{clip-path:url(#clip-path);}.cls-7{fill:#fff;opacity:0.6;}</style><clipPath id="clip-path"><rect class="cls-1" x="236.67" y="30.31" width="16" height="15.33"/></clipPath></defs><title>marevo-logo</title><g id="Layer_2" data-name="Layer 2"><g id="Layer_1-2" data-name="Layer 1"><g id="Layer_2-2" data-name="Layer 2"><g id="Layer_1-2-2" data-name="Layer 1-2"><path class="cls-2" d="M287,89.44c-.93.87-2.78.61-4.07,1-.33-.35-.49-.71-.08-1.08.62-.59,2.59-.44,4.48-.33A1.86,1.86,0,0,1,287,89.44Z"/><path class="cls-2" d="M279.65,99.92c-.75.7-2.67.54-4.29.61l.23-.2c1.17-1.08-1.34-1.73-.18-2.81s3.93-.37,5.09-1.46-1.52-1.77-.36-2.85.78-1.19,1.93-2.27a2.19,2.19,0,0,1,.83-.46c.65.69,2,1.35,1.22,2.09-1.19,1.11-.79,1.22-2,2.33S281,96,279.79,97.12,280.84,98.81,279.65,99.92Z"/><path class="cls-2" d="M275.36,100.53c-1.1.85-2.36.61-3.44,1.62-.33.3-.55.53-.75.73-1.12.25-2.13.47-2.68.52.48-1.22,3.46-1.2,4.64-2.31A3.65,3.65,0,0,1,275.36,100.53Z"/><path class="cls-2" d="M291.16,88.71c-.55.53-2.18.46-3.86.36.57-.81-.28-1.17.74-2.12s-3-2.17-1.88-3.25,4-.36,5.12-1.44a1.61,1.61,0,0,0,.44-.59c-1.22.2-2.6.13-3.47.86-1.3,1.1-4,.32-5.33,1.42s-1.24,1.12-2.54,2.21-1.23,1.12-2.53,2.22,3.73,2.55,2.44,3.65-3.37.51-4.67,1.61-1.52.78-3.35,1.67c.09-1,3.67-1.48,3.38-2.29a9.07,9.07,0,0,0-1.7-2.81c-.81-.9-.72-2.49-1.67-3.07a1.8,1.8,0,0,0-.56-.21,16.16,16.16,0,0,0-5.09.46,17.14,17.14,0,0,1-4.73.54.89.89,0,0,1-.48-.25c.82-.7,5.45-2.26,6.33-3s4.11-.68,5-1.4,2.34-1.21,3.25-1.92-.47-2.09.45-2.8,3-1,3.92-1.71-1-2.31-.1-3,2.93-1,3.87-1.73,4.22-.59,5.15-1.28-1.47-2.5-.53-3.19.05-2,1-2.69,2.78-1.08,3.73-1.77.82-1.75,1.77-2.44,1.38-1.56,2.33-2.25,3.49-.82,4.45-1.5,6.47.25,7.44-.43,1.65-1.45,2.62-2.13-1-2.43-.06-3.1-.73-2.33.24-3,4.61-.4,5.58-1.07,4-.62,5-1.29,1.38-1.56,2.36-2.23-1.36-2.58-.38-3.24,1.79-1.43,2.76-2.09,1.82-1.42,2.79-2.08,8,.9,9,.24,1.11-1.69,2.09-2.34-1.65-2.73-.68-3.38.6-1.91,1.56-2.55,5.25-.15,6.2-.79-1.85-2.87-.91-3.49c1.1-.72,4.76-.38,5.68-1,1.16-.77.33-2.15,1.18-2.71,2-1.28,4.12-3.05,6.46-2.83-.05.79.26,3.45.19,4.27s-.13,1.62-.25,2.44,1.91,1.66,1.77,2.48-2,1.6-2.15,2.41-3.91,1.52-4.1,2.33.62,1.64.41,2.46,1.82,1.7,1.58,2.52-2.85,1.49-3.1,2.3-.11,1.63-.38,2.44S358,43,357.71,43.8s-3.91,1.39-4.21,2.2-.81,1.59-1.12,2.39-2.55,1.45-2.88,2.26,5.53,2.09,5.2,2.89-1.17,1.58-1.51,2.38-6,1.14-6.32,1.94S352,60,351.61,60.78s-2.36,1.46-2.73,2.25-3.31,1.35-3.7,2.14,1.1,1.79.7,2.58-1.56,1.52-2,2.31-.18,1.66-.58,2.45-1.71,1.5-2.13,2.28.41,1.74,0,2.52-5.68,1-6.11,1.81-1.85,1.46-2.29,2.24,2.64,2,2.2,2.79-2.52,1.39-3,2.16,3.51,2.16,3,2.93,0,1.71-.5,2.48-1.38,1.55-1.85,2.31-2.78,1.36-3.25,2.11,1,1.89.56,2.63-4,1.21-4.45,1.94-4.56,1.12-5,1.83c-.59.91,3.2,2.32,2.76,3-1,1.51-.77,1.09-3,1.53a4.94,4.94,0,0,0-2.06,0,6.24,6.24,0,0,1-1.83,0,2.53,2.53,0,0,1-.36-.12c-1.09-.48,1.55-3.3.32-3.8-.78-.18-2.45.32-4.13.83s-3.35,1-4,.84c-1.32-.48-1.85-1.36-3.09-1.79s.36-3-.89-3.39c-.79-.18-2.28.28-3.76.73a10,10,0,0,1-3.58.78c-1.45-.45-1-2.22-2.18-2.59a8.88,8.88,0,0,0-2.91,0,9.38,9.38,0,0,1-2.48.13c-2.53-.75-5.61-1.78-5.32-3s6.72-.49,7.81-1.63-2.24-1.88-1.16-3,2.8-.75,3.89-1.89c.69-.72-.74-1.36-1.6-2C292.32,87.67,292.06,87.87,291.16,88.71Zm0-5.66c-.84.77,1.24,1.61,2.17,2.42,1.34-.44,3.37-.21,4.23-1.11,1.08-1.13-1.76-1.77-.67-2.91s2.39-.83,3.47-2,4.37-.38,5.45-1.52-1.58-1.73-.49-2.87,6.2,0,7.28-1.1-4.24-2.34-3.15-3.47-.73-1.54.36-2.68,8.26.5,9.35-.63-5.08-2.53-4-3.66,5.2-.2,6.29-1.33-4.36-2.37-3.28-3.5a1.72,1.72,0,0,1,.4-.31,1.53,1.53,0,0,0-.56.34c-1.19,1.11-1.05,1.15-2.23,2.26s-3.39.55-4.58,1.66c-.4.38.17.85,1.06,1.34,1.75,1,4.69,2,3.9,2.78-1.18,1.11-6.5-.26-7.7.85a6.17,6.17,0,0,1-1.68,1.12c-.38-.41-1.08-.81-1.53-1.21-1,.5-1.93.47-2.95,1.35-1.3,1.1.07,1.49-1.23,2.6s-1.5,1-2.8,2.14a.53.53,0,0,0-.22.6,3.65,3.65,0,0,0,2.06-.75c1.16-1.08,1.42-1,2.58-2.1a5,5,0,0,1,2.53-.94c.31.78,2,1.46,1.1,2.31-1.19,1.12-4,.4-5.19,1.51a5.72,5.72,0,0,1-1.95,1.14c.72.57,1.4,1.13.78,1.66a3.8,3.8,0,0,1-2.2.57A3.7,3.7,0,0,0,297,77a18.15,18.15,0,0,0-1.73.81,2.68,2.68,0,0,0-1.36.5.94.94,0,0,0-.44,1,5.58,5.58,0,0,1,.57-.08,3,3,0,0,1-.26,1.13,1.06,1.06,0,0,1-.46.77,2.12,2.12,0,0,1-.61.37,17.78,17.78,0,0,1-1.49,1.64m43.7-42.67c-1.19,1.11,2.75,2.13,1.56,3.24s-4.25.32-5.44,1.44c-.64.6.81,1.32,2.1,2,1.73,0,3.66.09,4.29-.56,1.08-1.14.13-1.35,1.21-2.49s-4.08-2.3-3-3.43,4.56-.34,5.64-1.48,3-.7,4.06-1.84,2.3-1.76.57-2.13l-.38-.07c-2.28-.36-3.3.06-4.5,1.17s-1,1.17-2.15,2.29-2.78.71-4,1.82M331.69,53.5c1.09-1.13-2-1.83-.94-3,.46-.48.24-.87-.08-1.24-1.47,0-2.88,0-3.44.47-1.19,1.12,2.19,2,1,3.1s-4.58.24-5.76,1.35c-.84.78.68,1.47,1.24,2.2.9-.46,1.86-.5,2.68-1.35,1.09-1.14,4.21-.42,5.3-1.56"/><path class="cls-2" d="M324.56,114.38a.41.41,0,0,1,.36.34,47,47,0,0,0-5.23,1.3,5.75,5.75,0,0,1-2.18-.21l-.61-.13-.46-.1a6.2,6.2,0,0,0-2.74-.23c-1.26.41-1.88,1.55-3.16,2s.9,3.15-.29,3.66-3.83.07-5,.58-5.09-.42-6.15.09c-1.25.61-3.14.83-4.09,1.32-2,1,1.55,3.41-.71,3.55-1.27-.53-3.16-1.26-4.4-1.73s-1.47-1.77-2.74-2.2-2.79-.89-4.13-1.29-2.81-.88-4.17-1.24-2-1.8-3.42-2.11-4.85,1.42-6.29,1.17l-.41-.08c-.59-.13-1.13-.3-1.66-.47s-1.06-.34-1.61-.46a6.17,6.17,0,0,0-.62-.1c-1.66-.22-3.69.64-5.16.51h-.37a5.22,5.22,0,0,1-1.83-.94,4.72,4.72,0,0,0-1.67-.92h-.34a16,16,0,0,1-2-.17l-.08-1a6.18,6.18,0,0,0,2.38-.17c1.37-.68-.93-3.16.24-3.68,1.42-.65,4.31,0,5.65-.43s1-3.5,2.7-3.77a2.15,2.15,0,0,1,.8,0,11.57,11.57,0,0,1,2.06.76,12.18,12.18,0,0,0,2.19.79,3.63,3.63,0,0,0,.93.09c1.49-.1,6.3.48,8.18.44A33.26,33.26,0,0,0,272,107.3c-.35-.07-.66-.13-.91-.16a2.38,2.38,0,0,1-.37-.06,9.84,9.84,0,0,1-1.9-.7,11.62,11.62,0,0,0-2-.72,4.41,4.41,0,0,0-.89-.09c-1.81,0-4.09-.23-5.67-.1-2.85.23-2.81,3.07-4.69,2.66a.86.86,0,0,1-.23-.06c1.28-.62.64-3,2-3.51s5.35,1.08,6.84.73,3.53-.73,5.07-1a8.23,8.23,0,0,0,1.87-1.45,47.72,47.72,0,0,1,5.29-1.09,14.9,14.9,0,0,1,3.26.39c.95.21,1.72.44,2,.53.82.25,2,1.86,2.94,3,.7.84-1.8,3.19-1.25,4,1.54.07,4.56-.23,6-.12s2.8.54,4.26.69,3.27-.34,4.71-.16,4.48-1.92,5.88-1.71c.77.17,1,1,1.19,1.79s.4,1.62,1.05,1.76c1.53.27,4.65-1.55,6-1.28,1.52.33,2,1.64,3.26,1.92,1.56.36,1.48,2.06,2.62,2.35a8.51,8.51,0,0,0,3.55-.18A9,9,0,0,1,324.56,114.38Z"/><path class="cls-2" d="M274.79,122.07a4.64,4.64,0,0,1,.64.17c1.34.45,1.73,1.34,2.6,1.85,1.06.63,2.47,1,3.06,1.61.84.82.6,1.45,1.13,1.9-1.61,1-2,.43-4.21,1.43a14.94,14.94,0,0,0-3,2.24,5.75,5.75,0,0,0-2,2.21c-1.08-.76-2.1-1.16-2.9-1.79s-1.09-1.69-1.95-2.37a33.84,33.84,0,0,0-3.22-1.93c-1-.57-2.63-.87-4-1.5s-1.95-1.43-3.09-1.91c-1.41-.59-2.76-1-3.85-1.46l-.32-2c1.2-.09,3.14,0,4.8,0,1.29,0,2.63.3,4.2.37,1.31.06,2.84-.22,4.34-.07s2.8.4,4.18.71C272.41,121.76,273.74,121.84,274.79,122.07Z"/><path class="cls-2" d="M297.78,78.4c-.75.71-2.39.6-3.76.74a1.87,1.87,0,0,1,.59-.89,4.34,4.34,0,0,1,.64-.49c.78-.11,1.71-.08,2.56-.12a.5.5,0,0,1,0,.71Z"/><path class="cls-2" d="M306.83,68.76c.29.31.4.62.07.94a3.44,3.44,0,0,1-1.63.75.61.61,0,0,1,.21-.75A5.28,5.28,0,0,1,306.83,68.76Z"/><path class="cls-2" d="M314.73,63.43a4,4,0,0,1-2.41.58,1.59,1.59,0,0,1,.62-.92c.59-.49.75-.56,1-.51l.19.05a1,1,0,0,0,.25.07,4,4,0,0,0,1.55,0h.2A3.76,3.76,0,0,0,314.73,63.43Z"/><path class="cls-2" d="M316.88,62.5c.05,0-.15.08-.77.17A3,3,0,0,1,316.88,62.5Z"/><path class="cls-3" d="M265.83,58.28h-6.56V28.63a1.56,1.56,0,0,0-.21-3.1H259a12.67,12.67,0,0,0-9.84-10.11,3.34,3.34,0,0,0,.78-2.13,3.38,3.38,0,0,0-2.7-3.31V.69a.69.69,0,1,0-1.37,0V10a3.38,3.38,0,0,0-2.69,3.31,3.34,3.34,0,0,0,.78,2.13,12.67,12.67,0,0,0-9.84,10.11H234a1.56,1.56,0,0,0-.21,3.1V58.28h-6.57a1.46,1.46,0,0,0-1.46,1.46v5.89a1.46,1.46,0,0,0,1.46,1.46H229v8a1.46,1.46,0,0,0,1.46,1.46h1.05l-4.34,54.3,1.86-.21,4-50.32,17.41,1.73,3.91,47.38-13.71-2.61-8.9,3.52,9.2-1,25.38,6.52-4.86-59.3h1A1.46,1.46,0,0,0,264,75.13v-8h1.8a1.46,1.46,0,0,0,1.46-1.46V59.74A1.46,1.46,0,0,0,265.83,58.28Zm-21-40.13c4.18,0,6.26,3.39,6.26,7.57H237.28A7.57,7.57,0,0,1,244.85,18.15Zm-8.18,30.47h14.24v9.73H236.67ZM252.45,73.7h-21V69.23h21Zm2.45-9.4H228.64v-3H254.9Z"/><rect class="cls-4" x="231.38" y="68.13" width="29.99" height="2.65"/><rect class="cls-5" x="236.67" y="30.31" width="16" height="15.33"/><g class="cls-6"><polygon class="cls-7" points="231.88 47.35 241.88 47.35 253.31 26.81 243.32 26.81 231.88 47.35"/></g><path class="cls-3" d="M264,49.63v.8H252.94v-.8h-.73v.8H241.16v-.8h-.73v.8h-11v-.8h-.73v8.74h.73v-4h11v4h.73v-4h11.05v4h.73v-4H264v4h.73V49.63Zm-34.6,4V51.16h11v2.51Zm11.77,0V51.16h11.05v2.51Zm11.78,0V51.16H264v2.51Z"/><rect class="cls-3" x="241.87" y="30.1" width="1.29" height="15.65"/><rect class="cls-3" x="249.8" y="30.1" width="1.29" height="15.65"/><path class="cls-3" d="M18.45,101.38l12.9-30.9V70.2h5v38.5h-5V75.81l-12.8,31.24H15.5L2,75.87V108.7H0V70.2H5.2Z"/><path class="cls-3" d="M65.1,97.21H48.2L43.55,108.7H41L56.4,70.2h2.75L75.5,108.7H69.85Zm-16-2.15H64.25l-7.6-18.53Z"/><path class="cls-3" d="M80.1,70.2H92.15c7.7,0,12.85,4,12.85,10.73,0,5.5-3.35,9.13-8.7,10.28l10.6,17.49h-5.4l-10.35-17H85.1v17h-5Zm5,2.15V89.51H91c5.4,0,8.85-3,8.85-8.53S96.4,72.35,91,72.35Z"/><path class="cls-3" d="M112.25,70.2H137v2.15H117.25V88H135.5v2.14H117.25v16.44H137.5v2.15H112.25Z"/><path class="cls-3" d="M158.65,102.43,171.8,70.2h2.55L159,108.7h-2.8L139.85,70.2h5.65Z"/><path class="cls-3" d="M193,69.82c10.25,0,17.75,8.36,17.75,19.63s-7.5,19.69-17.75,19.69-17.75-8.41-17.75-19.69S182.7,69.82,193,69.82Zm0,37.34c7.25,0,12.6-7.31,12.6-17.71S200.2,71.8,193,71.8s-12.6,7.26-12.6,17.65S185.75,107.16,193,107.16Z"/></g></g></g></g></svg>