<?xml version="1.0" encoding="UTF-8"?>
<svg width="256px" height="256px" viewBox="0 0 256 256" version="1.1" xmlns="http://www.w3.org/2000/svg" xmlns:xlink="http://www.w3.org/1999/xlink">
    <!-- Generator: Sketch 51.2 (57519) - http://www.bohemiancoding.com/sketch -->
    <title>360_on_black</title>
    <desc>Created with Sketch.</desc>
    <defs></defs>
    <g id="360_on_black" stroke="none" stroke-width="1" fill="none" fill-rule="evenodd">
        <g id="Group" transform="translate(18.000000, 51.000000)" fill="#FFFFFF" fill-rule="nonzero">
            <path d="M141.907734,135.009387 C139.811289,135.300552 137.666289,135.565521 135.532031,135.798282 L136.232852,142.227117 C138.430703,141.987914 140.639727,141.714356 142.798906,141.414601 L141.907734,135.009387 Z" id="Shape" stroke="#FFFFFF" stroke-width="3"></path>
            <path d="M167.346953,129.731902 C161.351523,131.442393 154.935859,132.886196 148.278281,134.023374 L149.368398,140.397669 C156.256719,139.220982 162.902695,137.725215 169.123281,135.950736 L167.346953,129.731902 Z" id="Shape" stroke="#FFFFFF" stroke-width="3"></path>
            <path d="M199.275313,115.385767 C192.590234,120.169816 183.979297,124.337607 173.680977,127.775337 L175.731016,133.909571 C186.6425,130.267423 195.831367,125.804172 203.041953,120.643926 L199.275313,115.385767 Z" id="Shape" stroke="#FFFFFF" stroke-width="3"></path>
            <path d="M159,53 C194.913711,60.2082822 213.529336,77.0798773 213.529336,93.6883436 C213.529336,99.5597546 210.60918,105.320368 204.851367,110.809141 L209.317109,115.488834 C216.405664,108.732761 220,101.397791 220,93.688773 C220,73.3917791 199.326172,54.8138037 159,47 L159,53 Z M64,47.8035583 C45.3382422,51.4246626 31.5038281,57.2664417 19.8743359,64.7547239 C6.87285156,73.1268098 0,83.1316564 0,93.688773 C0,100.18546 2.58371094,106.462699 7.67894531,112.346994 L12.5713672,108.115215 C8.52328125,103.439816 6.47066406,98.5866258 6.47066406,93.6892025 C6.47066406,77.1911043 28.1739453,61.5991411 64,54.3960123" id="Shape" stroke="#FFFFFF" stroke-width="3"></path>
            <path d="M109.594805,127.15092 L103.934531,130.284601 L107.71707,137.110245 C89.8721484,136.770552 72.3275781,134.510368 56.7032813,130.513067 C40.1057422,126.266258 26.7927344,120.375092 18.2028516,113.475153 L14.1496094,118.516012 C32.4160547,133.187669 68.798125,142.864847 107.769922,143.582883 L103.934531,150.503865 L109.594375,153.637546 L116.933438,140.394663 L109.594805,127.15092 Z" id="Shape" stroke="#FFFFFF" stroke-width="2"></path>
            <g id="cube-(1)-copy" transform="translate(55.000000, 0.000000)">
                <path d="M105.600224,16.997362 L56.2798163,0.216175869 C55.1124694,-0.00877300613 54.1696122,-0.00877300613 53.2492041,0.216175869 L3.90634694,17.0198569 C-0.112020408,18.2570757 0.000224489796,21.4288548 0.000224489796,21.5188344 L0.000224489796,86.1016564 C0.000224489796,87.9687321 1.16757143,89.6108589 3.03083673,90.3082004 L53.2492041,109.721288 C54.1471633,110.103701 56.0553265,109.946237 56.5267551,109.721288 L106.745122,90.3306953 C108.608388,89.6333538 109.775735,87.991227 109.775735,86.1241513 L109.775735,21.5188344 C109.775735,20.1241513 108.922673,17.4247648 105.600224,16.997362 Z M54.8879796,9.3491002 L91.794102,21.7437832 L54.8879796,35.8030879 L17.9818571,21.7437832 L54.8879796,9.3491002 Z M9.1145102,82.8398978 L9.1145102,28.3122904 L50.2185918,43.991227 L50.2185918,98.7437832 L9.1145102,82.8398978 Z M100.661449,82.8398978 L59.5573673,98.7437832 L59.5573673,44.1261963 L100.661449,28.3122904 L100.661449,82.8398978 Z" id="Shape"></path>
            </g>
        </g>
    </g>
</svg>