<?xml version="1.0" encoding="UTF-8"?>
<svg width="256px" height="256px" viewBox="0 0 256 256" version="1.1" xmlns="http://www.w3.org/2000/svg" xmlns:xlink="http://www.w3.org/1999/xlink">
    <!-- Generator: Sketch 51.2 (57519) - http://www.bohemiancoding.com/sketch -->
    <title>add_hover</title>
    <desc>Created with Sketch.</desc>
    <defs></defs>
    <g id="add_hover" stroke="none" stroke-width="1" fill="none" fill-rule="evenodd">
        <g id="add-circle" transform="translate(18.000000, 18.000000)" fill="#0F223B">
            <path d="M110,0 C49.5,0 0,49.5 0,110 C0,170.5 49.5,220 110,220 C170.5,220 220,170.5 220,110 C220,49.5 170.5,0 110,0 L110,0 Z M165,121 L121,121 L121,165 L99,165 L99,121 L55,121 L55,99 L99,99 L99,55 L121,55 L121,99 L165,99 L165,121 L165,121 Z" id="Shape"></path>
        </g>
    </g>
</svg>