<?xml version="1.0" encoding="UTF-8"?>
<svg width="256px" height="256px" viewBox="0 0 256 256" version="1.1" xmlns="http://www.w3.org/2000/svg" xmlns:xlink="http://www.w3.org/1999/xlink">
    <!-- Generator: Sketch 51.2 (57519) - http://www.bohemiancoding.com/sketch -->
    <title>calendar_on_black</title>
    <desc>Created with Sketch.</desc>
    <defs></defs>
    <g id="calendar_on_black" stroke="none" stroke-width="1" fill="none" fill-rule="evenodd">
        <g id="today-copy" transform="translate(29.000000, 18.000000)" fill="#FFFFFF">
            <path d="M176,22 L165,22 L165,0 L143,0 L143,22 L55,22 L55,0 L33,0 L33,22 L22,22 C9.9,22 0,31.9 0,44 L0,198 C0,210.1 9.9,220 22,220 L176,220 C188.1,220 198,210.1 198,198 L198,44 C198,31.9 188.1,22 176,22 L176,22 Z M176,198 L22,198 L22,77 L176,77 L176,198 L176,198 Z" id="Shape"></path>
            <rect id="Rectangle-path" x="44" y="99" width="55" height="55"></rect>
        </g>
    </g>
</svg>