<?xml version="1.0" encoding="UTF-8"?>
<svg width="256px" height="256px" viewBox="0 0 256 256" version="1.1" xmlns="http://www.w3.org/2000/svg" xmlns:xlink="http://www.w3.org/1999/xlink">
    <!-- Generator: Sketch 51.2 (57519) - http://www.bohemiancoding.com/sketch -->
    <title>gplus</title>
    <desc>Created with Sketch.</desc>
    <defs></defs>
    <g id="gplus" stroke="none" stroke-width="1" fill="none" fill-rule="evenodd">
        <g id="post-gplus" transform="translate(18.000000, 18.000000)" fill="#446389">
            <path d="M101.2,75.9 C101.2,64.9 94.6,42.9 78.1,42.9 C71.5,42.9 63.8,47.3 63.8,61.6 C63.8,74.8 70.4,93.5 85.8,93.5 C85.8,93.5 101.2,92.4 101.2,75.9 L101.2,75.9 Z M94.6,129.8 L91.3,129.8 L91.3,129.8 C88,129.8 78.1,130.9 71.5,133.1 C63.8,135.3 55,140.8 55,151.8 C55,163.9 66,176 88,176 C104.5,176 114.4,165 114.4,154 C114.4,146.3 108.9,140.8 94.6,129.8 L94.6,129.8 Z M198,0 L22,0 C9.9,0 0,9.9 0,22 L0,198 C0,210.1 9.9,220 22,220 L198,220 C210.1,220 220,210.1 220,198 L220,22 C220,9.9 210.1,0 198,0 L198,0 Z M78.1,189.2 C47.3,189.2 33,171.6 33,156.2 C33,150.7 34.1,138.6 49.5,129.8 C58.3,124.3 69.3,121 83.6,119.9 C81.4,117.7 80.3,114.4 80.3,108.9 C80.3,106.7 80.3,105.6 81.4,103.4 L77,103.4 C55,103.4 41.8,86.9 41.8,70.4 C41.8,51.7 56.1,30.8 86.9,30.8 L133.1,30.8 L129.8,34.1 L122.1,41.8 L121,42.9 L113.3,42.9 C117.7,47.3 123.2,55 123.2,67.1 C123.2,82.5 115.5,90.2 105.6,96.8 C103.4,97.9 101.2,101.2 101.2,104.5 C101.2,107.8 103.4,110 105.6,111.1 C106.7,112.2 108.9,113.3 111.1,114.4 C119.9,121 132,128.7 132,146.3 C132,166.1 117.7,189.2 78.1,189.2 L78.1,189.2 Z M187,110 L165,110 L165,132 L154,132 L154,110 L132,110 L132,99 L154,99 L154,77 L165,77 L165,99 L187,99 L187,110 L187,110 Z" id="Shape"></path>
        </g>
    </g>
</svg>