<?xml version="1.0" encoding="UTF-8"?>
<svg width="256px" height="256px" viewBox="0 0 256 256" version="1.1" xmlns="http://www.w3.org/2000/svg" xmlns:xlink="http://www.w3.org/1999/xlink">
    <!-- Generator: Sketch 51.2 (57519) - http://www.bohemiancoding.com/sketch -->
    <title>phone_hover_on_black</title>
    <desc>Created with Sketch.</desc>
    <defs></defs>
    <g id="phone_hover_on_black" stroke="none" stroke-width="1" fill="none" fill-rule="evenodd">
        <g id="phone-in-talk-copy-2" transform="translate(18.000000, 18.000000)" fill="#87909D">
            <path d="M207.777778,152.777778 C193.111111,152.777778 178.444444,150.333333 163.777778,145.444444 C160.111111,144.222222 155.222222,145.444444 151.555556,147.888889 L124.666667,174.777778 C90.4444444,157.666667 62.3333333,128.333333 44,94.1111111 L70.8888889,67.2222222 C74.5555556,63.5555556 75.7777778,58.6666667 73.3333333,55 C69.6666667,41.5555556 67.2222222,26.8888889 67.2222222,12.2222222 C67.2222222,4.88888889 62.3333333,0 55,0 L12.2222222,0 C4.88888889,0 0,4.88888889 0,12.2222222 C0,127.111111 92.8888889,220 207.777778,220 C215.111111,220 220,215.111111 220,207.777778 L220,165 C220,157.666667 215.111111,152.777778 207.777778,152.777778 L207.777778,152.777778 Z M195.555556,110 L220,110 C220,48.8888889 171.111111,0 110,0 L110,24.4444444 C157.666667,24.4444444 195.555556,62.3333333 195.555556,110 L195.555556,110 Z M146.666667,110 L171.111111,110 C171.111111,75.7777778 144.222222,48.8888889 110,48.8888889 L110,73.3333333 C130.777778,73.3333333 146.666667,89.2222222 146.666667,110 L146.666667,110 Z" id="Shape"></path>
        </g>
    </g>
</svg>