<?xml version="1.0" encoding="UTF-8"?>
<svg width="256px" height="256px" viewBox="0 0 256 256" version="1.1" xmlns="http://www.w3.org/2000/svg" xmlns:xlink="http://www.w3.org/1999/xlink">
    <!-- Generator: Sketch 51.2 (57519) - http://www.bohemiancoding.com/sketch -->
    <title>pinterest</title>
    <desc>Created with Sketch.</desc>
    <defs></defs>
    <g id="pinterest" stroke="none" stroke-width="1" fill="none" fill-rule="evenodd">
        <g id="post-pinterest" transform="translate(18.000000, 18.000000)" fill="#446389">
            <path d="M198,0 L22,0 C9.9,0 0,9.9 0,22 L0,198 C0,210.1 9.9,220 22,220 L198,220 C210.1,220 220,210.1 220,198 L220,22 C220,9.9 210.1,0 198,0 L198,0 Z M121,156.2 C112.2,156.2 103.4,152.9 97.9,146.3 L86.9,181.5 L85.8,183.7 C83.6,187 80.3,189.2 75.9,189.2 C69.3,189.2 63.8,183.7 63.8,177.1 L63.8,176 L63.8,176 L64.9,173.8 L84.7,112.2 C84.7,112.2 82.5,105.6 82.5,95.7 C82.5,77 92.4,71.5 101.2,71.5 C108.9,71.5 116.6,74.8 116.6,85.8 C116.6,100.1 106.7,107.8 106.7,118.8 C106.7,126.5 113.3,133.1 121,133.1 C146.3,133.1 156.2,113.3 156.2,95.7 C156.2,71.5 135.3,51.7 110,51.7 C84.7,51.7 63.8,71.5 63.8,95.7 C63.8,103.4 66,110 69.3,116.6 C70.4,118.8 70.4,119.9 70.4,122.1 C70.4,128.7 66,133.1 59.4,133.1 C55,133.1 51.7,130.9 49.5,127.6 C44,117.7 40.7,106.7 40.7,94.6 C40.7,58.3 71.5,28.6 108.9,28.6 C146.3,28.6 177.1,58.3 177.1,94.6 C178.2,125.4 160.6,156.2 121,156.2 L121,156.2 Z" id="Shape"></path>
        </g>
    </g>
</svg>