<?xml version="1.0" encoding="UTF-8"?>
<svg width="256px" height="256px" viewBox="0 0 256 256" version="1.1" xmlns="http://www.w3.org/2000/svg" xmlns:xlink="http://www.w3.org/1999/xlink">
    <!-- Generator: Sketch 51.2 (57519) - http://www.bohemiancoding.com/sketch -->
    <title>right_on_black</title>
    <desc>Created with Sketch.</desc>
    <defs></defs>
    <g id="right_on_black" stroke="none" stroke-width="1" fill="none" fill-rule="evenodd">
        <g id="cube-(1)" transform="translate(62.000000, 71.000000)" fill="#FFFFFF" fill-rule="nonzero">
            <path d="M105.600224,16.997362 L56.2798163,0.216175869 C55.1124694,-0.00877300613 54.1696122,-0.00877300613 53.2492041,0.216175869 L3.90634694,17.0198569 C-0.112020408,18.2570757 0.000224489796,21.4288548 0.000224489796,21.5188344 L0.000224489796,86.1016564 C0.000224489796,87.9687321 1.16757143,89.6108589 3.03083673,90.3082004 L53.2492041,109.721288 C54.1471633,110.103701 56.0553265,109.946237 56.5267551,109.721288 L106.745122,90.3306953 C108.608388,89.6333538 109.775735,87.991227 109.775735,86.1241513 L109.775735,21.5188344 C109.775735,20.1241513 108.922673,17.4247648 105.600224,16.997362 Z M54.8879796,9.3491002 L91.794102,21.7437832 L54.8879796,35.8030879 L17.9818571,21.7437832 L54.8879796,9.3491002 Z M9.1145102,82.8398978 L9.1145102,28.3122904 L50.2185918,43.991227 L50.2185918,98.7437832 L9.1145102,82.8398978 Z M100.661449,82.8398978 L59.5573673,98.7437832 L59.5573673,44.1261963 L100.661449,28.3122904 L100.661449,82.8398978 Z" id="Shape"></path>
        </g>
        <g id="Group" transform="translate(191.500000, 157.500000) rotate(90.000000) translate(-191.500000, -157.500000) translate(178.000000, 133.000000)" fill="#FFFFFF">
            <path d="M18.3909599,0.0542353935 L12.7306865,3.18791638 L16.5132255,10.0135605 C-1.33169633,9.6738673 -7.45802015,16.043566 16.5660771,16.4861986 L12.7306865,23.4071802 L18.3905302,26.5408612 L25.7295927,13.2979777 L18.3909599,0.0542353935 Z" id="Shape" fill-rule="nonzero" transform="translate(13.243313, 13.297548) scale(1, -1) rotate(90.000000) translate(-13.243313, -13.297548) "></path>
            <rect id="Rectangle-13" stroke="#FFFFFF" x="10.5" y="10.5" width="6" height="38"></rect>
        </g>
    </g>
</svg>