<?xml version="1.0" encoding="UTF-8"?>
<svg width="256px" height="256px" viewBox="0 0 256 256" version="1.1" xmlns="http://www.w3.org/2000/svg" xmlns:xlink="http://www.w3.org/1999/xlink">
    <!-- Generator: Sketch 51.2 (57519) - http://www.bohemiancoding.com/sketch -->
    <title>search_hover_on_black</title>
    <desc>Created with Sketch.</desc>
    <defs></defs>
    <g id="search_hover_on_black" stroke="none" stroke-width="1" fill="none" fill-rule="evenodd">
        <g id="search-copy-2" transform="translate(18.000000, 18.000000)" fill="#87909D">
            <path d="M157.142857,138.285714 L147.085714,138.285714 L143.314286,134.514286 C155.885714,120.685714 163.428571,101.828571 163.428571,81.7142857 C163.428571,36.4571429 126.971429,0 81.7142857,0 C36.4571429,0 0,36.4571429 0,81.7142857 C0,126.971429 36.4571429,163.428571 81.7142857,163.428571 C101.828571,163.428571 120.685714,155.885714 134.514286,143.314286 L138.285714,147.085714 L138.285714,157.142857 L201.142857,220 L220,201.142857 L157.142857,138.285714 L157.142857,138.285714 Z M81.7142857,138.285714 C50.2857143,138.285714 25.1428571,113.142857 25.1428571,81.7142857 C25.1428571,50.2857143 50.2857143,25.1428571 81.7142857,25.1428571 C113.142857,25.1428571 138.285714,50.2857143 138.285714,81.7142857 C138.285714,113.142857 113.142857,138.285714 81.7142857,138.285714 L81.7142857,138.285714 Z" id="Shape"></path>
        </g>
    </g>
</svg>