<?xml version="1.0" encoding="UTF-8"?>
<svg width="256px" height="256px" viewBox="0 0 256 256" version="1.1" xmlns="http://www.w3.org/2000/svg" xmlns:xlink="http://www.w3.org/1999/xlink">
    <!-- Generator: Sketch 51.2 (57519) - http://www.bohemiancoding.com/sketch -->
    <title>Shape_hover_on_black</title>
    <desc>Created with Sketch.</desc>
    <defs></defs>
    <g id="Shape_hover_on_black" stroke="none" stroke-width="1" fill="none" fill-rule="evenodd">
        <g id="share-alt-copy-2" transform="translate(30.000000, 19.000000)" fill="#87909D">
            <path d="M165,77 C156.2,77 148.5,80.3 143,85.8 L64.9,40.7 C66,38.5 66,35.2 66,33 C66,14.3 51.7,0 33,0 C14.3,0 0,14.3 0,33 C0,51.7 14.3,66 33,66 C41.8,66 49.5,62.7 55,57.2 L133.1,102.3 C132,104.5 132,107.8 132,110 C132,112.2 132,115.5 133.1,117.7 L55,163.9 C49.5,158.4 41.8,155.1 33,155.1 C15.4,155.1 1.1,169.4 1.1,187 C1.1,204.6 15.4,218.9 33,218.9 C50.6,218.9 64.9,204.6 64.9,187 C64.9,184.8 64.9,182.6 63.8,179.3 L141.9,133.1 C147.4,138.6 155.1,141.9 163.9,141.9 C182.6,141.9 196.9,127.6 196.9,108.9 C196.9,90.2 183.7,77 165,77 L165,77 Z" id="Shape"></path>
        </g>
    </g>
</svg>