<?xml version="1.0" encoding="UTF-8"?>
<svg width="256px" height="256px" viewBox="0 0 256 256" version="1.1" xmlns="http://www.w3.org/2000/svg" xmlns:xlink="http://www.w3.org/1999/xlink">
    <!-- Generator: Sketch 51.2 (57519) - http://www.bohemiancoding.com/sketch -->
    <title>sound_on_hover</title>
    <desc>Created with Sketch.</desc>
    <defs></defs>
    <g id="sound_on_hover" stroke="none" stroke-width="1" fill="none" fill-rule="evenodd">
        <g id="notifications-on-copy-2" transform="translate(18.000000, 23.000000)" fill="#0F223B">
            <path d="M58.6666667,16.8 L44,2.1 C18.8571429,21 2.0952381,50.4 0,84 L20.952381,84 C23.047619,55.65 36.6666667,31.5 58.6666667,16.8 L58.6666667,16.8 Z M199.047619,84 L220,84 C217.904762,50.4 202.190476,21 177.047619,2.1 L162.380952,16.8 C183.333333,31.5 196.952381,55.65 199.047619,84 L199.047619,84 Z M178.095238,89.25 C178.095238,56.7 156.095238,30.45 125.714286,23.1 L125.714286,15.75 C125.714286,7.35 118.380952,0 110,0 C101.619048,0 94.2857143,7.35 94.2857143,15.75 L94.2857143,23.1 C63.9047619,30.45 41.9047619,56.7 41.9047619,89.25 L41.9047619,147 L20.952381,168 L20.952381,178.5 L199.047619,178.5 L199.047619,168 L178.095238,147 L178.095238,89.25 L178.095238,89.25 Z M110,210 L114.190476,210 C121.52381,208.95 126.761905,203.7 128.857143,197.4 C129.904762,195.3 130.952381,192.15 130.952381,189 L89.047619,189 C89.047619,200.55 98.4761905,210 110,210 L110,210 Z" id="Shape"></path>
        </g>
    </g>
</svg>