<?xml version="1.0" encoding="UTF-8"?>
<svg width="256px" height="256px" viewBox="0 0 256 256" version="1.1" xmlns="http://www.w3.org/2000/svg" xmlns:xlink="http://www.w3.org/1999/xlink">
    <!-- Generator: Sketch 51.2 (57519) - http://www.bohemiancoding.com/sketch -->
    <title>tumblr_hover_on_black</title>
    <desc>Created with Sketch.</desc>
    <defs></defs>
    <g id="tumblr_hover_on_black" stroke="none" stroke-width="1" fill="none" fill-rule="evenodd">
        <g id="post-tumblr-copy-2" transform="translate(18.000000, 18.000000)" fill="#87909D">
            <path d="M198,0 L22,0 C9.9,0 0,9.9 0,22 L0,198 C0,210.1 9.9,220 22,220 L198,220 C210.1,220 220,210.1 220,198 L220,22 C220,9.9 210.1,0 198,0 L198,0 Z M154,99 L121,99 L121,141.9 C121,149.6 122.1,154 133.1,154 L154,154 L154,187 C154,187 143,188.1 130.9,188.1 C102.3,188.1 88,170.5 88,150.7 L88,99 L66,99 L66,68.2 C92.4,66 94.6,46.2 96.8,33 L121,33 L121,66 L154,66 L154,99 L154,99 Z" id="Shape"></path>
        </g>
    </g>
</svg>